# xmcd
#
# Track frame offsets:
#	150
#	15852
#	32964
#	48719
#	59718
#	75602
#	90246
#	106561
#	122669
#	139591
#	156764
#	164694
#
# Disc length: 2398 seconds
#
# Revision: 0
# Processed by: cddbd v1.5.1PL0 Copyright (c) Steve Scherf et al.
# Submitted via: dBpowerAMP V4.0
#
DISCID=90095c0c
DTITLE=Tekiela - Tekiela Wanted
DYEAR=1900
DGENRE=TexMex
TTITLE0=Una Mas Tequila
TTITLE1=The Love Fool
TTITLE2=Muchacha
TTITLE3=Baila Con Mi
TTITLE4=Manana
TTITLE5=El Bandito
TTITLE6=Estoy Enamorado
TTITLE7=Maria
TTITLE8=Guilty
TTITLE9=Cactus Girl
TTITLE10=La Cantina
TTITLE11=Speedy
EXTD=
EXTT0=
EXTT1=
EXTT2=
EXTT3=
EXTT4=
EXTT5=
EXTT6=
EXTT7=
EXTT8=
EXTT9=
EXTT10=
EXTT11=
PLAYORDER=
